<?xml version="1.0" standalone="no"?>
<!DOCTYPE svg PUBLIC "-//W3C//DTD SVG 20010904//EN"
 "http://www.w3.org/TR/2001/REC-SVG-20010904/DTD/svg10.dtd">
<svg version="1.0" xmlns="http://www.w3.org/2000/svg"
 width="300.000000pt" height="300.000000pt" viewBox="0 0 300.000000 300.000000"
 preserveAspectRatio="xMidYMid meet">
<metadata>
Created by potrace 1.10, written by Peter Selinger 2001-2011
</metadata>
<g transform="translate(0.000000,300.000000) scale(0.050000,-0.050000)"
fill="#000000" stroke="none">
<path d="M1850 5803 c-160 -73 -250 -219 -370 -597 l-64 -202 -296 -7 c-441
-10 -404 27 -714 -717 l-246 -588 0 -174 c0 -256 84 -443 250 -556 l70 -47 0
-1128 0 -1127 -82 0 c-170 0 -243 -107 -234 -341 l6 -149 2830 0 2830 0 6 149
c9 234 -64 341 -234 341 l-82 0 0 1127 0 1128 65 44 c171 118 255 303 255 559
l0 174 -246 588 c-310 744 -273 707 -715 717 l-297 7 -63 203 c-169 544 -268
632 -715 633 -283 0 -365 -21 -452 -118 -36 -39 -58 -42 -352 -42 -294 0 -316
3 -352 42 -111 123 -597 172 -798 81z m596 -165 c93 -48 133 -100 121 -159
-16 -78 24 -182 95 -251 l61 -58 277 0 277 0 61 58 c71 69 111 173 95 251 -12
59 28 111 121 159 87 44 471 28 548 -24 217 -146 550 -1363 440 -1606 -142
-311 -446 -274 -741 91 l-158 195 29 85 c48 141 -17 282 -166 359 -145 74
-360 -34 -396 -199 -19 -87 -198 -91 -219 -5 -43 172 -251 279 -397 204 -149
-77 -214 -218 -166 -359 l29 -85 -158 -195 c-295 -365 -599 -402 -741 -91
-110 243 223 1460 440 1606 77 52 461 68 548 24z m794 -199 c0 -85 -33 -99
-240 -99 -207 0 -240 14 -240 99 l0 51 240 0 240 0 0 -51z m-1890 -654 c-119
-297 -143 -694 -53 -872 l57 -113 -478 0 c-378 0 -475 5 -463 25 9 14 102 232
208 485 225 536 194 507 536 509 190 1 206 -2 193 -34z m3768 9 c65 -23 75
-42 260 -484 106 -253 200 -471 209 -485 12 -20 -85 -25 -463 -25 l-478 0 57
113 c90 178 66 575 -53 872 -17 43 351 50 468 9z m-2438 -254 c48 -48 50 -77
9 -136 -59 -84 -189 -48 -189 53 0 108 106 157 180 83z m783 7 c42 -38 49
-127 13 -163 -40 -40 -131 -29 -165 20 -76 110 54 232 152 143z m-250 -307
c42 -37 91 -60 126 -60 63 0 63 -1 93 -265 l13 -115 -445 0 -445 0 13 115 c30
264 30 265 93 265 37 0 83 22 124 59 98 90 327 90 428 1z m-825 -327 l-14
-113 -88 0 -89 0 95 120 c110 141 113 141 96 -7z m1320 7 l95 -120 -92 0 c-81
0 -91 5 -91 45 0 25 -6 79 -13 120 -16 99 -9 96 101 -45z m-2454 -441 c-53
-637 -914 -600 -914 38 l0 103 463 0 463 0 -12 -141z m1102 6 c-46 -641 -916
-610 -916 32 l0 103 463 0 462 0 -9 -135z m1100 -3 c-45 -617 -867 -617 -912
0 l-9 138 465 0 465 0 -9 -138z m1104 35 c0 -642 -870 -673 -916 -32 l-9 135
462 0 463 0 0 -103z m1100 -2 c0 -647 -869 -675 -916 -30 l-9 135 462 0 463 0
0 -105z m-4198 -509 c234 -243 671 -227 904 34 l81 90 111 -112 c252 -251 633
-251 882 0 l110 112 110 -112 c249 -252 630 -251 882 1 l113 113 64 -77 c125
-149 284 -219 492 -217 l129 1 0 -1085 0 -1084 -1465 4 -1465 5 -5 874 c-4
604 -12 882 -28 900 -36 44 -1302 39 -1346 -5 -28 -28 -32 -132 -31 -904 l2
-872 -171 -2 -171 -1 0 1085 0 1085 129 -1 c210 -2 368 69 494 221 61 73 69
77 92 45 14 -18 53 -63 87 -98z m758 -1521 l0 -815 -510 0 -510 0 0 815 0 815
510 0 510 0 0 -815z m3436 -1080 l7 -65 -2662 0 -2661 0 0 57 c0 31 6 62 13
70 8 7 1203 11 2655 8 l2642 -5 6 -65z"/>
<path d="M2115 5298 c-24 -14 -35 -45 -35 -99 0 -79 0 -79 -79 -79 -76 0 -121
-36 -121 -97 0 -42 65 -83 130 -83 65 0 68 -3 74 -85 10 -145 176 -129 176 17
0 64 4 68 66 68 76 0 114 30 114 90 0 60 -38 90 -114 90 -62 0 -66 5 -66 67 0
101 -70 155 -145 111z"/>
<path d="M3771 5289 c-40 -41 -40 -97 0 -138 46 -46 103 -38 141 19 63 96 -60
199 -141 119z"/>
<path d="M3584 5096 c-13 -13 -24 -43 -24 -66 0 -23 11 -53 24 -66 13 -13 43
-24 66 -24 23 0 53 11 66 24 13 13 24 43 24 66 0 23 -11 53 -24 66 -13 13 -43
24 -66 24 -23 0 -53 -11 -66 -24z"/>
<path d="M3936 5070 c-29 -65 27 -135 103 -126 63 8 102 97 62 145 -42 50
-138 40 -165 -19z"/>
<path d="M3764 4916 c-13 -13 -24 -43 -24 -66 0 -92 138 -129 181 -49 46 88
-87 185 -157 115z"/>
<path d="M2831 2449 c-38 -39 -48 -1361 -10 -1430 25 -48 2108 -62 2155 -15
41 41 34 1403 -7 1445 -48 47 -2090 47 -2138 0z m1975 -724 l4 -565 -910 0
-910 0 6 570 5 570 901 -5 900 -5 4 -565z"/>
<path d="M1901 1621 c-78 -144 44 -333 148 -230 76 76 26 269 -69 269 -37 0
-66 -14 -79 -39z"/>
<path d="M5894 5407 c-7 -7 -3 -30 9 -52 19 -37 16 -40 -31 -31 -44 9 -52 3
-52 -37 0 -26 9 -47 19 -47 11 0 15 14 8 30 -7 19 1 30 21 30 29 0 41 -24 34
-66 -2 -10 5 -12 14 -7 9 6 14 49 10 96 -7 90 -12 104 -32 84z"/>
<path d="M5951 5141 c-8 -12 -24 -16 -37 -8 -13 7 -17 6 -9 -3 8 -9 6 -26 -4
-39 -12 -14 -12 -34 0 -52 14 -23 18 -19 19 17 0 30 8 41 23 32 14 -8 18 -5
10 7 -7 12 -2 26 12 31 14 4 19 15 12 23 -7 7 -19 4 -26 -8z"/>
<path d="M5844 5032 c8 -9 5 -35 -6 -56 -18 -34 -16 -37 15 -19 40 20 50 23
97 23 17 0 30 14 30 31 0 29 -3 29 -32 -1 -30 -29 -36 -29 -75 4 -24 19 -37
28 -29 18z"/>
<path d="M5903 4858 c-19 -51 -6 -158 20 -158 10 0 12 24 4 53 -11 44 -7 51
20 41 18 -7 33 -5 33 4 0 10 -14 23 -32 30 -18 7 -27 25 -21 42 7 17 7 30 2
30 -6 0 -17 -19 -26 -42z"/>
</g>
</svg>
